<?xml version="1.0" encoding="UTF-8" standalone="no"?>
<!DOCTYPE svg PUBLIC "-//W3C//DTD SVG 1.1//EN"
 "http://www.w3.org/Graphics/SVG/1.1/DTD/svg11.dtd">
<!-- Generated by graphviz version 2.43.0 (0)
 -->
<!-- Title: %3 Pages: 1 -->
<svg width="1113pt" height="332pt"
 viewBox="0.00 0.00 1113.18 332.00" xmlns="http://www.w3.org/2000/svg" xmlns:xlink="http://www.w3.org/1999/xlink">
<g id="graph0" class="graph" transform="scale(1 1) rotate(0) translate(4 328)">
<title>%3</title>
<polygon fill="white" stroke="transparent" points="-4,4 -4,-328 1109.18,-328 1109.18,4 -4,4"/>
<!-- [root] local_file.my&#45;pet&#45;file (expand) -->
<g id="node1" class="node">
<title>[root] local_file.my&#45;pet&#45;file (expand)</title>
<polygon fill="none" stroke="black" points="427.98,-180 269.98,-180 269.98,-144 427.98,-144 427.98,-180"/>
<text text-anchor="middle" x="348.98" y="-158.3" font-family="Times,serif" font-size="14.00">local_file.my&#45;pet&#45;file</text>
</g>
<!-- [root] provider[&quot;registry.terraform.io/hashicorp/local&quot;] -->
<g id="node2" class="node">
<title>[root] provider[&quot;registry.terraform.io/hashicorp/local&quot;]</title>
<polygon fill="none" stroke="black" points="329.98,-108 0.02,-90 329.98,-72 659.93,-90 329.98,-108"/>
<text text-anchor="middle" x="329.98" y="-86.3" font-family="Times,serif" font-size="14.00">provider[&quot;registry.terraform.io/hashicorp/local&quot;]</text>
</g>
<!-- [root] local_file.my&#45;pet&#45;file (expand)&#45;&gt;[root] provider[&quot;registry.terraform.io/hashicorp/local&quot;] -->
<g id="edge1" class="edge">
<title>[root] local_file.my&#45;pet&#45;file (expand)&#45;&gt;[root] provider[&quot;registry.terraform.io/hashicorp/local&quot;]</title>
<path fill="none" stroke="black" d="M344.28,-143.7C342.16,-135.9 339.62,-126.51 337.26,-117.83"/>
<polygon fill="black" stroke="black" points="340.62,-116.84 334.62,-108.1 333.86,-118.67 340.62,-116.84"/>
</g>
<!-- [root] random_pet.my&#45;pet (expand) -->
<g id="node4" class="node">
<title>[root] random_pet.my&#45;pet (expand)</title>
<polygon fill="none" stroke="black" points="832.48,-108 677.48,-108 677.48,-72 832.48,-72 832.48,-108"/>
<text text-anchor="middle" x="754.98" y="-86.3" font-family="Times,serif" font-size="14.00">random_pet.my&#45;pet</text>
</g>
<!-- [root] local_file.my&#45;pet&#45;file (expand)&#45;&gt;[root] random_pet.my&#45;pet (expand) -->
<g id="edge2" class="edge">
<title>[root] local_file.my&#45;pet&#45;file (expand)&#45;&gt;[root] random_pet.my&#45;pet (expand)</title>
<path fill="none" stroke="black" d="M428.11,-145.57C431.1,-145.03 434.06,-144.51 436.98,-144 536.66,-126.64 564.55,-126.14 667.34,-108.25"/>
<polygon fill="black" stroke="black" points="667.94,-111.7 677.19,-106.53 666.73,-104.81 667.94,-111.7"/>
</g>
<!-- [root] provider[&quot;registry.terraform.io/hashicorp/random&quot;] -->
<g id="node3" class="node">
<title>[root] provider[&quot;registry.terraform.io/hashicorp/random&quot;]</title>
<polygon fill="none" stroke="black" points="754.98,-36 404.58,-18 754.98,0 1105.38,-18 754.98,-36"/>
<text text-anchor="middle" x="754.98" y="-14.3" font-family="Times,serif" font-size="14.00">provider[&quot;registry.terraform.io/hashicorp/random&quot;]</text>
</g>
<!-- [root] random_pet.my&#45;pet (expand)&#45;&gt;[root] provider[&quot;registry.terraform.io/hashicorp/random&quot;] -->
<g id="edge5" class="edge">
<title>[root] random_pet.my&#45;pet (expand)&#45;&gt;[root] provider[&quot;registry.terraform.io/hashicorp/random&quot;]</title>
<path fill="none" stroke="black" d="M754.98,-71.7C754.98,-63.98 754.98,-54.71 754.98,-46.11"/>
<polygon fill="black" stroke="black" points="758.48,-46.1 754.98,-36.1 751.48,-46.1 758.48,-46.1"/>
</g>
<!-- [root] provider[&quot;registry.terraform.io/hashicorp/local&quot;] (close) -->
<g id="node5" class="node">
<title>[root] provider[&quot;registry.terraform.io/hashicorp/local&quot;] (close)</title>
<ellipse fill="none" stroke="black" cx="389.98" cy="-234" rx="295.95" ry="18"/>
<text text-anchor="middle" x="389.98" y="-230.3" font-family="Times,serif" font-size="14.00">[root] provider[&quot;registry.terraform.io/hashicorp/local&quot;] (close)</text>
</g>
<!-- [root] provider[&quot;registry.terraform.io/hashicorp/local&quot;] (close)&#45;&gt;[root] local_file.my&#45;pet&#45;file (expand) -->
<g id="edge3" class="edge">
<title>[root] provider[&quot;registry.terraform.io/hashicorp/local&quot;] (close)&#45;&gt;[root] local_file.my&#45;pet&#45;file (expand)</title>
<path fill="none" stroke="black" d="M379.84,-215.7C375.13,-207.64 369.42,-197.89 364.2,-188.98"/>
<polygon fill="black" stroke="black" points="367.07,-186.96 359,-180.1 361.03,-190.5 367.07,-186.96"/>
</g>
<!-- [root] provider[&quot;registry.terraform.io/hashicorp/random&quot;] (close) -->
<g id="node6" class="node">
<title>[root] provider[&quot;registry.terraform.io/hashicorp/random&quot;] (close)</title>
<ellipse fill="none" stroke="black" cx="754.98" cy="-162" rx="309.25" ry="18"/>
<text text-anchor="middle" x="754.98" y="-158.3" font-family="Times,serif" font-size="14.00">[root] provider[&quot;registry.terraform.io/hashicorp/random&quot;] (close)</text>
</g>
<!-- [root] provider[&quot;registry.terraform.io/hashicorp/random&quot;] (close)&#45;&gt;[root] random_pet.my&#45;pet (expand) -->
<g id="edge4" class="edge">
<title>[root] provider[&quot;registry.terraform.io/hashicorp/random&quot;] (close)&#45;&gt;[root] random_pet.my&#45;pet (expand)</title>
<path fill="none" stroke="black" d="M754.98,-143.7C754.98,-135.98 754.98,-126.71 754.98,-118.11"/>
<polygon fill="black" stroke="black" points="758.48,-118.1 754.98,-108.1 751.48,-118.1 758.48,-118.1"/>
</g>
<!-- [root] root -->
<g id="node7" class="node">
<title>[root] root</title>
<ellipse fill="none" stroke="black" cx="551.98" cy="-306" rx="58.49" ry="18"/>
<text text-anchor="middle" x="551.98" y="-302.3" font-family="Times,serif" font-size="14.00">[root] root</text>
</g>
<!-- [root] root&#45;&gt;[root] provider[&quot;registry.terraform.io/hashicorp/local&quot;] (close) -->
<g id="edge6" class="edge">
<title>[root] root&#45;&gt;[root] provider[&quot;registry.terraform.io/hashicorp/local&quot;] (close)</title>
<path fill="none" stroke="black" d="M519.58,-291C496.39,-280.98 464.77,-267.32 438.56,-255.99"/>
<polygon fill="black" stroke="black" points="439.75,-252.69 429.18,-251.94 436.97,-259.12 439.75,-252.69"/>
</g>
<!-- [root] root&#45;&gt;[root] provider[&quot;registry.terraform.io/hashicorp/random&quot;] (close) -->
<g id="edge7" class="edge">
<title>[root] root&#45;&gt;[root] provider[&quot;registry.terraform.io/hashicorp/random&quot;] (close)</title>
<path fill="none" stroke="black" d="M599.45,-295.3C629.21,-287.42 667.09,-273.93 694.98,-252 716.25,-235.27 732.7,-208.88 742.95,-189.17"/>
<polygon fill="black" stroke="black" points="746.14,-190.62 747.48,-180.11 739.88,-187.49 746.14,-190.62"/>
</g>
</g>
</svg>
